<svg width="87" height="52" viewBox="0 0 87 52" fill="none" xmlns="http://www.w3.org/2000/svg">
<mask id="mask0" mask-type="alpha" maskUnits="userSpaceOnUse" x="16" y="3" width="48" height="46">
<path d="M49.3213 6.85509C49.3207 5.85704 49.7524 4.89923 50.5214 4.19235C51.2903 3.48546 52.3335 3.08742 53.4215 3.08577L58.8912 3.07751C59.9792 3.07587 61.0228 3.47077 61.7925 4.17533C62.5621 4.87988 62.9948 5.8364 62.9954 6.83444L63.015 44.4656C63.0155 45.4636 62.5838 46.4215 61.8148 47.1283C61.0459 47.8352 60.0027 48.2333 58.9147 48.2349L53.445 48.2432C52.3571 48.2448 51.3134 47.8499 50.5438 47.1454C49.7741 46.4408 49.3414 45.4843 49.3409 44.4862L49.3213 6.85509Z" fill="#FF0000"/>
<path d="M32.7517 17.0673C32.7512 16.0692 33.1829 15.1114 33.9519 14.4045C34.7208 13.6977 35.764 13.2996 36.852 13.298L42.3216 13.2897C43.4096 13.2881 44.4532 13.683 45.2229 14.3875C45.9926 15.0921 46.4253 16.0486 46.4258 17.0466L46.4376 39.6253C46.4381 40.6234 46.0064 41.5812 45.2375 42.2881C44.4685 42.995 43.4253 43.393 42.3373 43.3946L36.8677 43.4029C35.7797 43.4045 34.7361 43.0097 33.9664 42.3051C33.1967 41.6005 32.764 40.644 32.7635 39.646L32.7517 17.0673Z" fill="#FF0000"/>
<path d="M20.6134 21.875C19.5254 21.8767 18.4822 22.2747 17.7133 22.9816C16.9443 23.6885 16.5126 24.6463 16.5131 25.6443L16.5171 33.1706C16.5176 34.1686 16.9503 35.1251 17.72 35.8297C18.4896 36.5342 19.5333 36.9291 20.6212 36.9275L26.0909 36.9192C27.1789 36.9176 28.2221 36.5195 28.991 35.8127C29.76 35.1058 30.1917 34.148 30.1912 33.1499L30.1872 25.6237C30.1867 24.6257 29.754 23.6691 28.9843 22.9646C28.2147 22.26 27.171 21.8651 26.0831 21.8668L20.6134 21.875Z" fill="#FF0000"/>
</mask>
<g mask="url(#mask0)">
<rect width="53.009" height="39.9462" transform="matrix(0.947881 0.319898 -0.31659 0.948137 24.5821 -11.4644)" fill="#04CC00"/>
</g>
<path d="M75 26.1668H79.5L63.8553 44.5L18.243 29.8197C17.7286 29.3353 17.031 29.0633 16.3035 29.0633C15.5761 29.0633 14.8785 29.3353 14.364 29.8197L0.5 40.5V47.5L16.3035 35.299L39.1097 42.1938L63.8553 51C63.1279 51 64.3697 51.4843 63.8553 51C63.3408 51.4843 64.5827 51 63.8553 51L85.0067 27.25L86.5 29.8197V21L75 26.1668Z" fill="#0075FF"/>
</svg>
