<svg width="87" height="51" viewBox="0 0 87 51" fill="none" xmlns="http://www.w3.org/2000/svg">
<mask id="mask0" mask-type="alpha" maskUnits="userSpaceOnUse" x="16" y="2" width="48" height="46">
<path d="M49.3213 6.32741C49.3207 5.32937 49.7524 4.37155 50.5214 3.66467C51.2903 2.95778 52.3335 2.55974 53.4215 2.55809L58.8912 2.54983C59.9792 2.54819 61.0228 2.94309 61.7925 3.64765C62.5621 4.35221 62.9948 5.30872 62.9954 6.30676L63.015 43.9379C63.0155 44.936 62.5838 45.8938 61.8148 46.6007C61.0459 47.3075 60.0027 47.7056 58.9147 47.7072L53.445 47.7155C52.3571 47.7171 51.3134 47.3222 50.5438 46.6177C49.7741 45.9131 49.3414 44.9566 49.3409 43.9586L49.3213 6.32741Z" fill="#FF0000"/>
<path d="M32.7517 16.5396C32.7512 15.5416 33.1829 14.5837 33.9519 13.8769C34.7208 13.17 35.764 12.7719 36.852 12.7703L42.3216 12.762C43.4096 12.7604 44.4532 13.1553 45.2229 13.8598C45.9926 14.5644 46.4253 15.5209 46.4258 16.5189L46.4376 39.0977C46.4381 40.0957 46.0064 41.0535 45.2375 41.7604C44.4685 42.4673 43.4253 42.8653 42.3373 42.867L36.8677 42.8752C35.7797 42.8769 34.7361 42.482 33.9664 41.7774C33.1967 41.0729 32.764 40.1163 32.7635 39.1183L32.7517 16.5396Z" fill="#FF0000"/>
<path d="M20.6134 21.3473C19.5254 21.349 18.4822 21.747 17.7133 22.4539C16.9443 23.1608 16.5126 24.1186 16.5131 25.1167L16.5171 32.6429C16.5176 33.6409 16.9503 34.5974 17.72 35.302C18.4896 36.0066 19.5333 36.4015 20.6212 36.3998L26.0909 36.3916C27.1789 36.3899 28.2221 35.9919 28.991 35.285C29.76 34.5781 30.1917 33.6203 30.1912 32.6222L30.1872 25.096C30.1867 24.098 29.754 23.1415 28.9843 22.4369C28.2147 21.7323 27.171 21.3374 26.0831 21.3391L20.6134 21.3473Z" fill="#FF0000"/>
</mask>
<g mask="url(#mask0)">
<rect width="53.009" height="39.9462" transform="matrix(0.947881 0.319898 -0.31659 0.948137 24.5821 -11.9921)" fill="#04CC00"/>
</g>
<path d="M75 25.6391H79.5L63.8553 43.9723L18.243 29.292C17.7286 28.8077 17.031 28.5356 16.3035 28.5356C15.5761 28.5356 14.8785 28.8077 14.364 29.292L0.5 39.9723V46.9723L16.3035 34.7713L39.1097 41.6661L63.8553 50.4723C63.1279 50.4723 64.3697 50.9566 63.8553 50.4723C63.3408 50.9566 64.5827 50.4723 63.8553 50.4723L85.0067 26.7223L86.5 29.292V20.4723L75 25.6391Z" fill="#0075FF"/>
</svg>
