<svg width="357" height="71" viewBox="0 0 357 71" fill="none" xmlns="http://www.w3.org/2000/svg">
<path d="M26.978 37.853C26.978 38.981 26.9467 39.8427 26.884 40.438H5.593C5.687 42.3807 6.157 44.0413 7.003 45.42C7.849 46.7987 8.96133 47.8483 10.34 48.569C11.7187 49.2583 13.2227 49.603 14.852 49.603C16.9827 49.603 18.7687 49.086 20.21 48.052C21.6827 47.018 22.654 45.6237 23.124 43.869H26.602C25.9753 46.3757 24.628 48.428 22.56 50.026C20.5233 51.5927 17.954 52.376 14.852 52.376C12.4393 52.376 10.2773 51.8433 8.366 50.778C6.45467 49.6813 4.95067 48.146 3.854 46.172C2.78867 44.1667 2.256 41.8323 2.256 39.169C2.256 36.5057 2.78867 34.1713 3.854 32.166C4.91933 30.1607 6.40767 28.6253 8.319 27.56C10.2303 26.4947 12.408 25.962 14.852 25.962C17.296 25.962 19.4267 26.4947 21.244 27.56C23.0927 28.6253 24.5027 30.0667 25.474 31.884C26.4767 33.67 26.978 35.6597 26.978 37.853ZM23.641 37.759C23.6723 35.8477 23.2807 34.2183 22.466 32.871C21.6827 31.5237 20.6017 30.5053 19.223 29.816C17.8443 29.1267 16.3403 28.782 14.711 28.782C12.267 28.782 10.1833 29.5653 8.46 31.132C6.73667 32.6987 5.781 34.9077 5.593 37.759H23.641ZM33.9373 30.897C34.658 29.299 35.7546 28.0613 37.2273 27.184C38.7313 26.3067 40.5643 25.868 42.7263 25.868V29.299H41.8333C39.452 29.299 37.5406 29.9413 36.0993 31.226C34.658 32.5107 33.9373 34.657 33.9373 37.665V52H30.6473V26.338H33.9373V30.897ZM45.8896 52.235C45.2003 52.235 44.6206 52 44.1506 51.53C43.712 51.06 43.4926 50.4803 43.4926 49.791C43.4926 49.1017 43.712 48.5377 44.1506 48.099C44.6206 47.629 45.2003 47.394 45.8896 47.394C46.5476 47.394 47.096 47.629 47.5346 48.099C48.0046 48.5377 48.2396 49.1017 48.2396 49.791C48.2396 50.4803 48.0046 51.06 47.5346 51.53C47.096 52 46.5476 52.235 45.8896 52.235ZM50.0087 39.169C50.0087 36.5057 50.5414 34.187 51.6067 32.213C52.6721 30.2077 54.1447 28.6723 56.0247 27.607C57.9047 26.5103 60.0511 25.962 62.4637 25.962C65.6284 25.962 68.2291 26.7453 70.2657 28.312C72.3337 29.8787 73.6654 32.0093 74.2607 34.704H70.7357C70.2971 32.8553 69.3414 31.414 67.8687 30.38C66.4274 29.3147 64.6257 28.782 62.4637 28.782C60.7404 28.782 59.1894 29.1737 57.8107 29.957C56.4321 30.7403 55.3354 31.9153 54.5207 33.482C53.7374 35.0173 53.3457 36.913 53.3457 39.169C53.3457 41.425 53.7374 43.3363 54.5207 44.903C55.3354 46.4697 56.4321 47.6447 57.8107 48.428C59.1894 49.2113 60.7404 49.603 62.4637 49.603C64.6257 49.603 66.4274 49.086 67.8687 48.052C69.3414 46.9867 70.2971 45.514 70.7357 43.634H74.2607C73.6654 46.266 72.3337 48.381 70.2657 49.979C68.1977 51.577 65.5971 52.376 62.4637 52.376C60.0511 52.376 57.9047 51.8433 56.0247 50.778C54.1447 49.6813 52.6721 48.146 51.6067 46.172C50.5414 44.1667 50.0087 41.8323 50.0087 39.169ZM89.22 52.376C86.8073 52.376 84.6296 51.8433 82.687 50.778C80.7756 49.6813 79.256 48.146 78.128 46.172C77.0313 44.1667 76.483 41.8323 76.483 39.169C76.483 36.5057 77.047 34.187 78.175 32.213C79.303 30.2077 80.8383 28.6723 82.781 27.607C84.7236 26.5103 86.9013 25.962 89.314 25.962C91.7266 25.962 93.9043 26.5103 95.847 27.607C97.821 28.6723 99.3563 30.2077 100.453 32.213C101.581 34.187 102.145 36.5057 102.145 39.169C102.145 41.801 101.581 44.1197 100.453 46.125C99.325 48.1303 97.774 49.6813 95.8 50.778C93.826 51.8433 91.6326 52.376 89.22 52.376ZM89.22 49.509C90.912 49.509 92.4786 49.133 93.92 48.381C95.3613 47.5977 96.5206 46.4383 97.398 44.903C98.3066 43.3363 98.761 41.425 98.761 39.169C98.761 36.913 98.3223 35.0173 97.445 33.482C96.5676 31.9153 95.4083 30.756 93.967 30.004C92.5256 29.2207 90.959 28.829 89.267 28.829C87.575 28.829 86.0083 29.2207 84.567 30.004C83.1256 30.756 81.9663 31.9153 81.089 33.482C80.243 35.0173 79.82 36.913 79.82 39.169C79.82 41.425 80.243 43.3363 81.089 44.903C81.9663 46.4383 83.11 47.5977 84.52 48.381C85.9613 49.133 87.528 49.509 89.22 49.509ZM117.824 25.868C120.895 25.868 123.402 26.8237 125.344 28.735C127.287 30.615 128.258 33.3567 128.258 36.96V52H125.015V37.336C125.015 34.5473 124.31 32.4167 122.9 30.944C121.522 29.4713 119.626 28.735 117.213 28.735C114.738 28.735 112.764 29.5183 111.291 31.085C109.819 32.6517 109.082 34.9547 109.082 37.994V52H105.792V26.338H109.082V30.709C109.897 29.1423 111.072 27.9517 112.607 27.137C114.143 26.291 115.882 25.868 117.824 25.868ZM144.417 52.376C142.005 52.376 139.827 51.8433 137.884 50.778C135.973 49.6813 134.453 48.146 133.325 46.172C132.229 44.1667 131.68 41.8323 131.68 39.169C131.68 36.5057 132.244 34.187 133.372 32.213C134.5 30.2077 136.036 28.6723 137.978 27.607C139.921 26.5103 142.099 25.962 144.511 25.962C146.924 25.962 149.102 26.5103 151.044 27.607C153.018 28.6723 154.554 30.2077 155.65 32.213C156.778 34.187 157.342 36.5057 157.342 39.169C157.342 41.801 156.778 44.1197 155.65 46.125C154.522 48.1303 152.971 49.6813 150.997 50.778C149.023 51.8433 146.83 52.376 144.417 52.376ZM144.417 49.509C146.109 49.509 147.676 49.133 149.117 48.381C150.559 47.5977 151.718 46.4383 152.595 44.903C153.504 43.3363 153.958 41.425 153.958 39.169C153.958 36.913 153.52 35.0173 152.642 33.482C151.765 31.9153 150.606 30.756 149.164 30.004C147.723 29.2207 146.156 28.829 144.464 28.829C142.772 28.829 141.206 29.2207 139.764 30.004C138.323 30.756 137.164 31.9153 136.286 33.482C135.44 35.0173 135.017 36.913 135.017 39.169C135.017 41.425 135.44 43.3363 136.286 44.903C137.164 46.4383 138.307 47.5977 139.717 48.381C141.159 49.133 142.725 49.509 144.417 49.509ZM191.54 25.868C194.548 25.868 196.992 26.8237 198.872 28.735C200.783 30.615 201.739 33.3567 201.739 36.96V52H198.496V37.336C198.496 34.5473 197.822 32.4167 196.475 30.944C195.127 29.4713 193.294 28.735 190.976 28.735C188.563 28.735 186.636 29.534 185.195 31.132C183.753 32.73 183.033 35.0487 183.033 38.088V52H179.79V37.336C179.79 34.5473 179.116 32.4167 177.769 30.944C176.421 29.4713 174.573 28.735 172.223 28.735C169.81 28.735 167.883 29.534 166.442 31.132C165 32.73 164.28 35.0487 164.28 38.088V52H160.99V26.338H164.28V30.756C165.094 29.158 166.254 27.9517 167.758 27.137C169.262 26.291 170.938 25.868 172.787 25.868C175.011 25.868 176.954 26.4007 178.615 27.466C180.307 28.5313 181.529 30.098 182.281 32.166C182.97 30.1293 184.145 28.5783 185.806 27.513C187.498 26.4163 189.409 25.868 191.54 25.868ZM208.34 21.497C207.682 21.497 207.118 21.262 206.648 20.792C206.178 20.322 205.943 19.7423 205.943 19.053C205.943 18.3637 206.178 17.7997 206.648 17.361C207.118 16.891 207.682 16.656 208.34 16.656C208.998 16.656 209.562 16.891 210.032 17.361C210.502 17.7997 210.737 18.3637 210.737 19.053C210.737 19.7423 210.502 20.322 210.032 20.792C209.562 21.262 208.998 21.497 208.34 21.497ZM209.985 26.338V52H206.695V26.338H209.985ZM216.825 49.274H230.267V52H213.065V49.274L226.272 29.064H213.3V26.338H230.032V29.064L216.825 49.274ZM256.7 37.853C256.7 38.981 256.668 39.8427 256.606 40.438H235.315C235.409 42.3807 235.879 44.0413 236.725 45.42C237.571 46.7987 238.683 47.8483 240.062 48.569C241.44 49.2583 242.944 49.603 244.574 49.603C246.704 49.603 248.49 49.086 249.932 48.052C251.404 47.018 252.376 45.6237 252.846 43.869H256.324C255.697 46.3757 254.35 48.428 252.282 50.026C250.245 51.5927 247.676 52.376 244.574 52.376C242.161 52.376 239.999 51.8433 238.088 50.778C236.176 49.6813 234.672 48.146 233.576 46.172C232.51 44.1667 231.978 41.8323 231.978 39.169C231.978 36.5057 232.51 34.1713 233.576 32.166C234.641 30.1607 236.129 28.6253 238.041 27.56C239.952 26.4947 242.13 25.962 244.574 25.962C247.018 25.962 249.148 26.4947 250.966 27.56C252.814 28.6253 254.224 30.0667 255.196 31.884C256.198 33.67 256.7 35.6597 256.7 37.853ZM253.363 37.759C253.394 35.8477 253.002 34.2183 252.188 32.871C251.404 31.5237 250.323 30.5053 248.945 29.816C247.566 29.1267 246.062 28.782 244.433 28.782C241.989 28.782 239.905 29.5653 238.182 31.132C236.458 32.6987 235.503 34.9077 235.315 37.759H253.363Z" fill="white"/>
<mask id="mask0" mask-type="alpha" maskUnits="userSpaceOnUse" x="286" y="6" width="48" height="46">
<path d="M319.321 10.3274C319.321 9.32937 319.752 8.37155 320.521 7.66467C321.29 6.95778 322.334 6.55974 323.422 6.55809L328.891 6.54983C329.979 6.54819 331.023 6.94309 331.792 7.64765C332.562 8.35221 332.995 9.30872 332.995 10.3068L333.015 47.9379C333.015 48.936 332.584 49.8938 331.815 50.6007C331.046 51.3075 330.003 51.7056 328.915 51.7072L323.445 51.7155C322.357 51.7171 321.313 51.3222 320.544 50.6177C319.774 49.9131 319.341 48.9566 319.341 47.9586L319.321 10.3274Z" fill="#FF0000"/>
<path d="M302.752 20.5396C302.751 19.5416 303.183 18.5837 303.952 17.8769C304.721 17.17 305.764 16.7719 306.852 16.7703L312.322 16.762C313.41 16.7604 314.453 17.1553 315.223 17.8598C315.993 18.5644 316.425 19.5209 316.426 20.5189L316.438 43.0977C316.438 44.0957 316.006 45.0535 315.237 45.7604C314.469 46.4673 313.425 46.8653 312.337 46.867L306.868 46.8752C305.78 46.8769 304.736 46.482 303.966 45.7774C303.197 45.0729 302.764 44.1163 302.763 43.1183L302.752 20.5396Z" fill="#FF0000"/>
<path d="M290.613 25.3473C289.525 25.349 288.482 25.747 287.713 26.4539C286.944 27.1608 286.513 28.1186 286.513 29.1167L286.517 36.6429C286.518 37.6409 286.95 38.5974 287.72 39.302C288.49 40.0066 289.533 40.4015 290.621 40.3998L296.091 40.3916C297.179 40.3899 298.222 39.9919 298.991 39.285C299.76 38.5781 300.192 37.6203 300.191 36.6222L300.187 29.096C300.187 28.098 299.754 27.1415 298.984 26.4369C298.215 25.7323 297.171 25.3374 296.083 25.3391L290.613 25.3473Z" fill="#FF0000"/>
</mask>
<g mask="url(#mask0)">
<rect width="53.009" height="39.9462" transform="matrix(0.947881 0.319898 -0.31659 0.948137 294.582 -7.99207)" fill="#04CC00"/>
</g>
<path d="M345 29.6391H349.5L333.855 47.9723L288.243 33.292C287.729 32.8077 287.031 32.5356 286.304 32.5356C285.576 32.5356 284.878 32.8077 284.364 33.292L270.5 43.9723V50.9723L286.304 38.7713L309.11 45.6661L333.855 54.4723C333.128 54.4723 334.37 54.9566 333.855 54.4723C333.341 54.9566 334.583 54.4723 333.855 54.4723L355.007 30.7223L356.5 33.292V24.4723L345 29.6391Z" fill="#0075FF"/>
</svg>
